<svg xmlns="http://www.w3.org/2000/svg" viewBox="0 0 64 64">
  <defs>
    <linearGradient id="bg" x1="8" y1="6" x2="56" y2="58" gradientUnits="userSpaceOnUse">
      <stop stop-color="#2563eb"/>
      <stop offset="1" stop-color="#7c3aed"/>
    </linearGradient>
  </defs>
  <rect width="64" height="64" rx="15" fill="url(#bg)"/>
  <path d="M13 18a4 4 0 0 1 4-4h23a4 4 0 0 1 4 4v7h4.5a5 5 0 0 1 4.1 2.15l5.5 7.85a5 5 0 0 1 .9 2.87V45a4 4 0 0 1-4 4h-2.2a8 8 0 0 1-15.6 0H28.8a8 8 0 0 1-15.6 0H13a4 4 0 0 1-4-4V22a4 4 0 0 1 4-4Z" fill="#fff"/>
  <path d="M44 29h4.5a1 1 0 0 1 .82.43L54 36h-10v-7Z" fill="#bfdbfe"/>
  <path d="M21 24v13h12" fill="none" stroke="url(#bg)" stroke-width="5" stroke-linecap="round" stroke-linejoin="round"/>
  <circle cx="21" cy="49" r="4" fill="#312e81"/>
  <circle cx="45" cy="49" r="4" fill="#312e81"/>
</svg>
